<svg preserveAspectRatio="none" width="100%" height="100%" overflow="visible" style="display: block;" viewBox="0 0 656.619 497.217" fill="none" xmlns="http://www.w3.org/2000/svg">
<g id="Group 632431">
<path id="Vector 820" d="M257.635 224.925C254.991 224.925 252.849 227.067 252.849 229.71C252.849 232.353 254.991 234.496 257.635 234.496V229.71V224.925ZM654.842 315.852L656.619 311.408C584.637 282.616 404.026 224.925 257.635 224.925V229.71V234.496C402.209 234.496 581.478 291.66 653.065 320.295L654.842 315.852Z" fill="var(--stroke-0, #247238)"/>
<path id="Vector 821" d="M306.281 235.11C253.639 215.967 186.64 129.826 143.569 38.8986C210.568 72.398 325.423 177.682 306.281 235.11Z" fill="var(--fill-0, #68B044)"/>
<path id="Vector 824" d="M253.394 229.132C202.27 252.021 94.2087 236.79 0 201.469C71.4255 178.898 227.174 174.571 253.394 229.132Z" fill="var(--fill-0, #68B044)"/>
<path id="Vector 825" d="M300.388 241.399C284.901 295.23 203.558 367.98 115.799 417.186C144.624 348.047 241.782 226.241 300.388 241.399Z" fill="var(--fill-0, #68B044)"/>
<path id="Vector 826" d="M390.991 250.911C385.288 306.635 318.124 392.647 240.473 456.625C256.591 383.473 330.627 246.378 390.991 250.911Z" fill="var(--fill-0, #68B044)"/>
<path id="Vector 827" d="M477.688 270.266C471.397 331.742 397.299 426.634 311.632 497.217C329.413 416.513 411.092 265.265 477.688 270.266Z" fill="var(--fill-0, #68B044)"/>
<path id="Vector 822" d="M397.352 245.903C350.096 215.827 303.316 117.233 280.932 19.1424C339.099 66.3405 428.462 193.975 397.352 245.903Z" fill="var(--fill-0, #68B044)"/>
<path id="Vector 823" d="M475.065 267.636C432.087 224.647 405.746 109.185 405.132 0C455.637 63.6971 520.251 219.952 475.065 267.636Z" fill="var(--fill-0, #68B044)"/>
</g>
</svg>
