<svg preserveAspectRatio="none" width="100%" height="100%" overflow="visible" style="display: block;" viewBox="0 0 636.86 482.388" fill="none" xmlns="http://www.w3.org/2000/svg">
<g id="Group 632430">
<path id="Vector 820" d="M249.807 218.3C247.289 218.3 245.248 220.341 245.248 222.859C245.248 225.377 247.289 227.418 249.807 227.418V222.859V218.3ZM635.167 306.431L636.86 302.198C567.029 274.266 391.816 218.3 249.807 218.3V222.859V227.418C390.086 227.418 564.019 282.882 633.474 310.664L635.167 306.431Z" fill="var(--stroke-0, #68B044)"/>
<path id="Vector 821" d="M297.145 227.086C246.073 208.515 181.073 124.943 139.287 36.7277C204.287 69.2279 315.717 171.372 297.145 227.086Z" fill="var(--fill-0, #247238)"/>
<path id="Vector 824" d="M245.836 221.287C196.237 243.493 91.3988 228.716 0 194.45C69.2952 172.552 220.399 168.353 245.836 221.287Z" fill="var(--fill-0, #247238)"/>
<path id="Vector 825" d="M292.194 233.784C277.17 286.009 198.253 356.589 113.112 404.328C141.077 337.251 235.337 219.078 292.194 233.784Z" fill="var(--fill-0, #247238)"/>
<path id="Vector 826" d="M380.095 243.012C374.563 297.074 309.402 380.521 234.067 442.591C249.704 371.62 321.532 238.614 380.095 243.012Z" fill="var(--fill-0, #247238)"/>
<path id="Vector 827" d="M463.297 262.205C457.193 321.848 385.305 413.91 302.193 482.387C319.444 404.09 398.688 257.353 463.297 262.205Z" fill="var(--fill-0, #247238)"/>
<path id="Vector 822" d="M385.357 238.569C339.511 209.39 294.126 113.737 272.409 18.5717C328.841 64.3621 415.54 188.19 385.357 238.569Z" fill="var(--fill-0, #247238)"/>
<path id="Vector 823" d="M460.752 259.654C419.056 217.947 393.501 105.928 392.905 0C441.904 61.7973 504.59 213.392 460.752 259.654Z" fill="var(--fill-0, #247238)"/>
</g>
</svg>
