<svg preserveAspectRatio="none" width="100%" height="100%" overflow="visible" style="display: block;" viewBox="0 0 562.163 427.172" fill="none" xmlns="http://www.w3.org/2000/svg">
<g id="Group 632424">
<path id="Vector 820" d="M218.223 192.501C215.986 192.501 214.172 194.315 214.172 196.552C214.172 198.79 215.986 200.604 218.223 200.604V196.552V192.501ZM560.658 270.815L562.163 267.054C500.11 242.233 344.414 192.501 218.223 192.501V196.552V200.604C342.876 200.604 497.435 249.889 559.154 274.577L560.658 270.815Z" fill="var(--stroke-0, #68B044)"/>
<path id="Vector 821" d="M259.48 200.678C214.097 184.175 156.337 109.912 119.206 31.5234C176.966 60.4035 275.983 151.169 259.48 200.678Z" fill="var(--fill-0, #247238)"/>
<path id="Vector 824" d="M218.453 196.103C174.378 215.836 81.2179 202.705 0 172.255C61.5764 152.797 195.849 149.066 218.453 196.103Z" fill="var(--fill-0, #247238)"/>
<path id="Vector 825" d="M255.081 206.63C241.73 253.038 171.603 315.756 95.946 358.176C120.796 298.571 204.557 193.561 255.081 206.63Z" fill="var(--fill-0, #247238)"/>
<path id="Vector 826" d="M333.19 214.83C328.274 262.869 270.371 337.021 203.428 392.177C217.323 329.112 281.15 210.922 333.19 214.83Z" fill="var(--fill-0, #247238)"/>
<path id="Vector 827" d="M407.933 231.516C402.509 284.515 338.628 366.322 264.774 427.172C280.104 357.596 350.52 227.204 407.933 231.516Z" fill="var(--fill-0, #247238)"/>
<path id="Vector 822" d="M337.332 211.995C296.592 186.066 256.263 101.068 236.965 16.5031C287.111 57.1928 364.152 167.227 337.332 211.995Z" fill="var(--fill-0, #247238)"/>
<path id="Vector 823" d="M404.329 230.731C367.277 193.67 344.568 94.1289 344.039 0.000136297C387.58 54.9139 443.283 189.622 404.329 230.731Z" fill="var(--fill-0, #247238)"/>
</g>
</svg>
